# This file uses centimeters as units for non-parametric coordinates.

mtllib Arrow.mtl
g default
v -1.816667 4.000000 -0.500000
v -1.816665 17.000000 -0.500000
v -1.816665 17.000000 0.500000
v -1.816667 4.000000 0.500000
v -0.000000 17.000000 -0.500000
v 0.000000 17.000000 0.500000
v 0.000000 4.000000 0.500000
v -0.000000 4.000000 -0.500000
v 0.000000 0.000000 0.500000
v -0.000000 0.000000 -0.500000
v -0.500000 0.000000 0.500000
v -0.500000 0.000000 -0.500000
v -4.000000 4.000000 0.500000
v -4.000000 4.000000 -0.500000
v 1.816667 4.000000 0.500000
v 1.816665 17.000000 0.500000
v 1.816665 17.000000 -0.500000
v 1.816667 4.000000 -0.500000
v 0.500000 0.000000 -0.500000
v 0.500000 0.000000 0.500000
v 4.000000 4.000000 -0.500000
v 4.000000 4.000000 0.500000
vt 0.625000 0.000000
vt 0.625000 0.250000
vt 0.625000 0.500000
vt 0.625000 0.750000
vt 0.625000 1.000000
vt 0.875000 0.000000
vt 0.875000 0.250000
vt 0.500000 0.250000
vt 0.500000 0.500000
vt 0.500000 0.750000
vt 0.500000 0.000000
vt 0.500000 1.000000
vt 0.500000 1.000000
vt 0.500000 0.750000
vt 0.625000 0.750000
vt 0.625000 1.000000
vt 0.625000 0.750000
vt 0.625000 1.000000
vt 0.625000 0.000000
vt 0.875000 0.000000
vt 0.875000 0.250000
vt 0.625000 0.250000
vt 0.500000 0.250000
vt 0.625000 0.500000
vt 0.500000 0.500000
vt 0.500000 0.750000
vt 0.625000 0.750000
vt 0.500000 1.000000
vt 0.500000 0.750000
vt 0.625000 0.750000
vt 0.625000 1.000000
vt 0.500000 0.000000
vt 0.625000 0.750000
vt 0.625000 1.000000
vt 0.625000 1.000000
vt 0.500000 1.000000
vn -1.000000 0.000000 0.000000
vn -1.000000 0.000000 0.000000
vn -1.000000 0.000000 0.000000
vn -1.000000 0.000000 0.000000
vn 0.000000 1.000000 0.000000
vn 0.000000 1.000000 0.000000
vn 0.000000 1.000000 0.000000
vn 0.000000 1.000000 0.000000
vn -0.000000 -0.000000 1.000000
vn 0.000000 -0.000000 1.000000
vn 0.000000 -0.000000 1.000000
vn -0.000000 -0.000000 1.000000
vn -0.000000 -1.000000 0.000000
vn -0.000000 -1.000000 0.000000
vn -0.707107 -0.707107 0.000000
vn -0.707107 -0.707107 0.000000
vn 0.000000 -0.000000 -1.000000
vn -0.000000 -0.000000 -1.000000
vn -0.000000 -0.000000 -1.000000
vn 0.000000 -0.000000 -1.000000
vn -0.000000 0.000000 1.000000
vn -0.000000 0.000000 1.000000
vn -0.752577 -0.658505 0.000000
vn -0.752577 -0.658505 0.000000
vn -0.000000 0.000000 -1.000000
vn -0.000000 0.000000 -1.000000
vn 0.000000 1.000000 0.000000
vn 0.000000 1.000000 0.000000
vn 0.000000 1.000000 0.000000
vn 0.000000 1.000000 0.000000
vn 0.000000 0.000000 -1.000000
vn 0.000000 0.000000 1.000000
vn 1.000000 0.000000 0.000000
vn 1.000000 0.000000 0.000000
vn 1.000000 0.000000 0.000000
vn 1.000000 0.000000 0.000000
vn 0.000000 1.000000 -0.000000
vn 0.000000 1.000000 -0.000000
vn 0.000000 1.000000 -0.000000
vn 0.000000 1.000000 -0.000000
vn 0.000000 -0.000000 -1.000000
vn 0.000000 -0.000000 -1.000000
vn 0.000000 -0.000000 -1.000000
vn 0.000000 0.000000 -1.000000
vn 0.000000 -1.000000 0.000000
vn 0.000000 -1.000000 0.000000
vn 0.707107 -0.707107 0.000000
vn 0.707107 -0.707107 0.000000
vn 0.000000 -0.000000 1.000000
vn 0.000000 -0.000000 1.000000
vn 0.000000 0.000000 1.000000
vn 0.000000 -0.000000 1.000000
vn 0.000000 0.000000 -1.000000
vn 0.000000 0.000000 -1.000000
vn 0.752577 -0.658505 0.000000
vn 0.752577 -0.658505 0.000000
vn 0.000000 0.000000 1.000000
vn 0.000000 0.000000 1.000000
vn 0.000000 1.000000 0.000000
vn 0.000000 1.000000 0.000000
vn 0.000000 1.000000 0.000000
vn 0.000000 1.000000 0.000000
vn 0.000000 0.000000 1.000000
vn 0.000000 0.000000 -1.000000
s off
g Arrow
usemtl initialShadingGroup
f 1/1/1 4/6/2 3/7/3 2/2/4
f 5/8/5 2/2/6 3/3/7 6/9/8
s 1
f 7/10/9 6/9/10 3/3/11 4/4/12
s 2
f 10/13/13 9/14/14 11/15/15 12/16/16
s 3
f 5/8/17 8/11/18 1/1/19 2/2/20
s 1
f 7/10/9 4/4/12 11/15/21 9/14/22
s 2
f 13/17/23 14/18/24 12/16/16 11/15/15
s 3
f 1/5/19 8/12/18 10/13/25 12/16/26
s off
f 4/4/27 1/5/28 14/18/29 13/17/30
s 3
f 1/5/19 12/16/26 14/18/31
s 1
f 11/15/21 4/4/12 13/17/32
s off
f 15/19/33 18/20/34 17/21/35 16/22/36
f 6/23/37 16/22/38 17/24/39 5/25/40
s 4
f 8/26/41 5/25/42 17/24/43 18/27/44
s 5
f 9/28/45 10/29/46 19/30/47 20/31/48
s 6
f 6/23/49 7/32/50 15/19/51 16/22/52
s 4
f 8/26/41 18/27/44 19/30/53 10/29/54
s 5
f 21/33/55 22/34/56 20/31/48 19/30/47
s 6
f 15/35/51 7/36/50 9/28/57 20/31/58
s off
f 18/27/59 15/35/60 22/34/61 21/33/62
s 6
f 15/35/51 20/31/58 22/34/63
s 4
f 19/30/53 18/27/44 21/33/64
